<svg xmlns="http://www.w3.org/2000/svg" width="260" height="58" viewBox="0 0 260 58">
  <metadata><?xpacket begin="﻿" id="W5M0MpCehiHzreSzNTczkc9d"?>
<x:xmpmeta xmlns:x="adobe:ns:meta/" x:xmptk="Adobe XMP Core 5.6-c142 79.160924, 2017/07/13-01:06:39        ">
   <rdf:RDF xmlns:rdf="http://www.w3.org/1999/02/22-rdf-syntax-ns#">
      <rdf:Description rdf:about=""/>
   </rdf:RDF>
</x:xmpmeta>
                                                                                                    
                                                                                                    
                                                                                                    
                                                                                                    
                                                                                                    
                                                                                                    
                                                                                                    
                                                                                                    
                                                                                                    
                                                                                                    
                                                                                                    
                                                                                                    
                                                                                                    
                                                                                                    
                                                                                                    
                                                                                                    
                                                                                                    
                                                                                                    
                                                                                                    
                                                                                                    
                           
<?xpacket end="w"?></metadata>
<defs>
    <style>
      .cls-1 {
        fill: #f6e200;
        fill-rule: evenodd;
      }
    </style>
  </defs>
  <path id="BTN" class="cls-1" d="M823.4,963.664a1.985,1.985,0,0,0,1.3-1.928c-0.147-.817-1.075-1.657.026-2.624h3.877c0.544,0.272.641,1.088,1.629,1.033l1.047-1.037h1.725c0.3,1.115.591,2.2,0.9,3.334a6.9,6.9,0,0,0,.439,4.714l0.769,0.375a1.092,1.092,0,0,0,.636-1.231c-0.111-1.183-.214-2.368-0.386-3.544a6.332,6.332,0,0,0-.486-1.51,2.21,2.21,0,0,1-.211-1.806l1.817-.162c0.691,0.521,1.518.816,1.681,1.563l0.7-1.262c0.882-.426,5.494-0.368,7.01,0,0.932-.116,1.625-0.259,2.322-0.278,1.43-.039,2.863,0,4.294-0.019,0.638-.009,1.275-0.091,1.913-0.145a2.656,2.656,0,0,1,.839-0.079,18.448,18.448,0,0,0,4.909.218c6.584,0.032,13.169.013,19.754,0.013h2.057l1.683,1.5c1.083-.01,1.042-0.9,1.573-1.411a51.2,51.2,0,0,1,5.27-.07c1.429,0,2.858.092,4.287,0.1a26.38,26.38,0,0,1,4.484.27,11.741,11.741,0,0,0,1.916.047c2.288,0.019,4.578-.011,6.863.067a20.583,20.583,0,0,1,4.9.277c2.914-.371,5.821.114,8.738,0.048,3.5-.079,7.02-0.088,10.511.139,3.861,0.251,7.715.188,11.574,0.232,3.218,0.036,6.454-.1,9.651.164,4.784,0.4,9.57.058,14.35,0.328,2.211,0.125,4.437-.006,6.655.037,1.7,0.034,3.4.16,5.106,0.241,0.357,0.017.715,0.022,1.072,0.024,5.93,0.042,11.86.075,17.79,0.132,0.85,0.009,1.7.143,2.55,0.2,0.5,0.036,1,.055,1.5.061,4.57,0.05,9.15.1,13.83,0.143a7.3,7.3,0,0,1,3.15,2.14,13.972,13.972,0,0,0,2.23,1.822,2.4,2.4,0,0,1,.76.936c0.47,1.374.86,2.772,1.41,4.583,0.44,0.456,1.2,1.24,1.99,2.059-0.02.172-.03,0.36-0.05,0.548l-0.07.693c1.13,1.281,1.42,3.1,2.77,4.165,0.51,1.8.98,3.461,1.45,5.111a4,4,0,0,1,1.65,2.067,8.352,8.352,0,0,0,1.25,2.5,2.681,2.681,0,0,1,.27,3,4.339,4.339,0,0,0-.11,2.933c0.29,1.422.75,2.815,1.09,4.229a10.579,10.579,0,0,0,1.36,3.105,9.606,9.606,0,0,1,1.3,4.33c0.1,1.18.23,2.37,0.28,3.56,0.02,0.71-.07,1.43-0.12,2.15-0.1,1.37.25,2.75-.04,4.11a8.831,8.831,0,0,1-.3.97,7,7,0,0,1-1.1.15,30.793,30.793,0,0,1-5.76-.23,4.1,4.1,0,0,0-.86-0.03h-1.07l-22.76-.12c-5.624-.57-11.278-0.12-16.917-0.37-3.213-.15-6.44-0.02-9.661-0.04-0.927,0-1.853-.1-2.779-0.16-0.641-.03-1.283-0.1-1.925-0.1q-10.734-.075-21.467-0.13a26.016,26.016,0,0,1-4.909-.25,8.327,8.327,0,0,0-1.5-.02q-11.59-.075-23.181-0.13c-3.33-.44-6.694-0.19-10.107-0.31-0.257-.43-0.486-0.8-0.658-1.09a1.7,1.7,0,0,1,.171-0.52c1.578-1.81,2.136-4.02,2.739-6.19,0.532-1.91.844-3.87,1.247-5.77a0.9,0.9,0,0,0-1.006-.77,10.964,10.964,0,0,0-1.221,3c-0.3,1.02-.947,1.95-0.711,2.82-0.5,1.13-.953,2.03-1.283,2.97-0.307.87-.446,1.79-0.838,2.65a27.7,27.7,0,0,0-.938,2.84c-0.638.04-1.2,0.1-1.763,0.09-8.658-.03-17.319.05-25.972-0.17-4.78-.11-9.558-0.18-14.338-0.24-1.357-.02-2.715.03-4.072,0.01-0.636-.01-1.27-0.11-1.9-0.17a1.734,1.734,0,0,0-.606-0.09c-1.387.53-2.832,0.23-4.245,0.25-3.577.05-7.157,0.02-10.736,0.02a3.64,3.64,0,0,1-2.261-.4,2.069,2.069,0,0,0-.88.14c-0.078-.14-0.207-0.37-0.357-0.64-0.434.38-.681,0.6-0.977,0.86H829.727c-0.5-.29-1.034-0.58-1.663-0.94-0.273.32-.48,0.57-0.687,0.81a1.99,1.99,0,0,1-.4.13c-0.57.02-1.143,0.04-1.714,0.04q-11.9-.06-23.809-0.12-9.555-.03-19.111.01a8.661,8.661,0,0,1-3.914-.74,2.053,2.053,0,0,1-.635-2.02,6.856,6.856,0,0,0-.313-3.13,4.4,4.4,0,0,1,.055-2.56,4.164,4.164,0,0,0,.191-1.95c-0.257-.98.26-1.96-0.171-2.92a2.148,2.148,0,0,1,.155-0.77c0.078-.986.155-1.978,0.188-2.97,0.031-.924.01-1.849,0-2.773a3.654,3.654,0,0,0-.082-1.183,3.039,3.039,0,0,1-.048-2.691,16.167,16.167,0,0,0-.522-2.509,2.5,2.5,0,0,1-.16-1.74,7.94,7.94,0,0,0,.248-3.428c0.921-.926.992-2.221,1.463-3.479l0.662-.541c0.614-1.723.41-3.462,0.7-5.239l1.782-.592a0.963,0.963,0,0,0,.182-0.339c0.039-.924.017-1.852,0.1-2.771a7.4,7.4,0,0,1,.448-1.427c-0.041-.095-0.145-0.334-0.289-0.662l-1.229.141a1.233,1.233,0,0,1-.566-1.656c0.693-.273.685,0.425,1.174,0.532a0.946,0.946,0,0,0,.817-0.9c-0.182-.739-1.223-0.352-1.472-0.972a0.732,0.732,0,0,1,.009-0.365c0.319-.437.667-0.856,0.989-1.262,0.029-1.22.029-1.22-.861-2.566a1.531,1.531,0,0,1,.29-0.5,7.533,7.533,0,0,1,4.78-1.263,4.188,4.188,0,0,0,1.652-.027,7.839,7.839,0,0,1,1.5-.05c2.5,0,5.01-.031,7.515,0,3.337,0.048,6.674-.216,10.012-0.018a9.643,9.643,0,0,0,1.7-.137,10.865,10.865,0,0,1,4.591.175c0.355,0.4.662,0.744,0.937,1.053,0.815-.127.515-0.749,0.727-1.117a0.982,0.982,0,0,1,.364-0.185c1.141-.014,2.282-0.008,3.478-0.008l0.773,0.885c0.5-.033.374-0.473,0.651-0.779a5.05,5.05,0,0,1,2.447-.038C822.9,960.6,823.133,962.023,823.4,963.664Zm47.483,15.124c0.306-.989.553-1.786,0.806-2.6l-1.038-.34c-0.384-.274-0.165-0.93-0.852-1.065-0.148.5-.317,1-0.439,1.507-0.169.7-.311,1.412-0.442,2.122a0.929,0.929,0,0,0,.165.376h1.8Zm69.5,9.6c-0.977,1.069-1.853,2.019-2.71,2.984a1.069,1.069,0,0,0,.02.5L938.945,992l1.951-1.431c0.089-.571.179-1.146,0.27-1.729Zm10.2-4.911a0.92,0.92,0,0,0,.021-1.467l-1.966.481-0.807,1.229,0.69,0.532c0.254-.374.47-0.692,0.684-1Zm-32.778-.442a3.548,3.548,0,0,1-.238-0.842c0-.319.125-0.637,0.152-0.959,0.018-.2.2-0.5-0.263-0.6-0.4.519-.81,1.038-1.2,1.572a0.823,0.823,0,0,0-.04.383A1.088,1.088,0,0,0,917.809,983.037Zm26.992,3.711c0.512-.494.749-0.931,0.213-1.487a1.375,1.375,0,0,0-1.627.832C943.572,986.8,944.073,986.885,944.8,986.748ZM931.274,998.3a1.057,1.057,0,0,0,1.368-.581l-0.42-.788-1.1.476C931.183,997.772,931.233,998.061,931.274,998.3Z" transform="translate(-777 -959)"/>
</svg>
